<?xml version="1.0" standalone="no"?><!DOCTYPE svg PUBLIC "-//W3C//DTD SVG 1.1//EN" "http://www.w3.org/Graphics/SVG/1.1/DTD/svg11.dtd"><svg t="1512023968690" class="icon" style="" viewBox="0 0 1024 1024" version="1.1" xmlns="http://www.w3.org/2000/svg" p-id="2736" xmlns:xlink="http://www.w3.org/1999/xlink" width="200" height="200"><defs><style type="text/css"></style></defs><path d="M917.437903 810.461366l-810.875805 0c-23.180978 0-41.952526-18.227148-41.952526-40.689765L64.609571 457.72839l894.779834 0 0 312.043211C959.389405 792.234217 940.618881 810.461366 917.437903 810.461366zM148.493134 729.064439l167.768149 0 0-40.708185-167.768149 0L148.493134 729.064439zM567.912995 606.959329l-419.418837 0 0 40.708185 419.418837 0L567.912995 606.959329zM64.609571 254.246819c0-22.48206 18.770524-40.707161 41.952526-40.707161l810.875805 0c23.180978 0 41.951503 18.226125 41.951503 40.707161l0 122.085668-894.779834 0L64.609571 254.246819z" p-id="2737" fill="#dbdbdb"></path></svg>