<?xml version="1.0" standalone="no"?><!DOCTYPE svg PUBLIC "-//W3C//DTD SVG 1.1//EN" "http://www.w3.org/Graphics/SVG/1.1/DTD/svg11.dtd"><svg t="1511855139990" class="icon" style="" viewBox="0 0 1024 1024" version="1.1" xmlns="http://www.w3.org/2000/svg" p-id="7607" xmlns:xlink="http://www.w3.org/1999/xlink" width="200" height="200"><defs><style type="text/css"></style></defs><path d="M643.197 567.606l-118.953-65.002v-212.846c0-12.153-4.948-22.284-17.36-22.284-12.501 0-17.36 9.976-17.36 22.284v222.186c0 13.393 15.837 25.372 19.406 27.41l114.861 61.639c10.589 6.046 21.35 4.101 27.557-6.531 6.25-10.707 2.568-20.736-8.15-26.857z" p-id="7608"></path><path d="M512 67.408c-248.27 0-449.532 199.050-449.532 444.592 0 245.54 201.262 444.592 449.532 444.592 248.268 0 449.532-199.051 449.532-444.592-0.001-245.541-201.264-444.592-449.532-444.592zM512 922.365c-223.443 0-414.811-189.379-414.811-410.365 0-220.988 191.368-410.365 414.811-410.365 223.442 0 414.811 189.377 414.811 410.365 0 220.986-191.37 410.365-414.811 410.365z" p-id="7609"></path></svg>