<?xml version="1.0" standalone="no"?><!DOCTYPE svg PUBLIC "-//W3C//DTD SVG 1.1//EN" "http://www.w3.org/Graphics/SVG/1.1/DTD/svg11.dtd"><svg t="1512131585077" class="icon" style="" viewBox="0 0 1593 1024" version="1.1" xmlns="http://www.w3.org/2000/svg" p-id="3007" xmlns:xlink="http://www.w3.org/1999/xlink" width="311.1328125" height="200"><defs><style type="text/css"></style></defs><path d="M1554.962963 568.888889 341.333333 568.888889C319.563852 568.888889 303.407407 552.77037 303.407407 530.962963 303.407407 509.155556 319.563852 493.037037 341.333333 493.037037L1554.962963 493.037037C1576.77037 493.037037 1592.888889 509.155556 1592.888889 530.962963 1592.888889 552.77037 1576.77037 568.888889 1554.962963 568.888889ZM1554.962963 151.703704 341.333333 151.703704C319.563852 151.703704 303.407407 135.585185 303.407407 113.777778 303.407407 91.97037 319.563852 75.851852 341.333333 75.851852L1554.962963 75.851852C1576.77037 75.851852 1592.888889 91.97037 1592.888889 113.777778 1592.888889 135.585185 1576.77037 151.703704 1554.962963 151.703704ZM113.777778 1024C48.507259 1024 0 975.568593 0 910.222222 0 844.913778 48.507259 796.444444 113.777778 796.444444 179.048296 796.444444 227.555556 844.913778 227.555556 910.222222 227.555556 975.568593 179.048296 1024 113.777778 1024ZM113.777778 872.296296C92.008296 872.296296 75.851852 888.414815 75.851852 910.222222 75.851852 932.02963 92.008296 948.148148 113.777778 948.148148 135.547259 948.148148 151.703704 932.02963 151.703704 910.222222 151.703704 888.414815 135.547259 872.296296 113.777778 872.296296ZM113.777778 644.740741C48.507259 644.740741 0 596.271407 0 530.962963 0 465.616593 48.507259 417.185185 113.777778 417.185185 179.048296 417.185185 227.555556 465.616593 227.555556 530.962963 227.555556 596.271407 179.048296 644.740741 113.777778 644.740741ZM113.777778 493.037037C92.008296 493.037037 75.851852 509.155556 75.851852 530.962963 75.851852 552.77037 92.008296 568.888889 113.777778 568.888889 135.547259 568.888889 151.703704 552.77037 151.703704 530.962963 151.703704 509.155556 135.547259 493.037037 113.777778 493.037037ZM113.777778 227.555556C48.507259 227.555556 0 179.124148 0 113.777778 0 48.431407 48.507259 0 113.777778 0 179.048296 0 227.555556 48.431407 227.555556 113.777778 227.555556 179.124148 179.048296 227.555556 113.777778 227.555556ZM119.466667 75.738074C97.697185 75.738074 80.023704 93.449481 80.023704 115.256889 80.023704 137.064296 92.008296 151.703704 113.777778 151.703704 135.547259 151.703704 158.947556 137.064296 158.947556 115.256889 158.947556 93.449481 141.274074 75.738074 119.466667 75.738074ZM341.333333 872.296296 1554.962963 872.296296C1576.77037 872.296296 1592.888889 888.414815 1592.888889 910.222222 1592.888889 932.02963 1576.77037 948.148148 1554.962963 948.148148L341.333333 948.148148C319.563852 948.148148 303.407407 932.02963 303.407407 910.222222 303.407407 888.414815 319.563852 872.296296 341.333333 872.296296Z" p-id="3008" fill="#dbdbdb"></path></svg>