<?xml version="1.0" standalone="no"?><!DOCTYPE svg PUBLIC "-//W3C//DTD SVG 1.1//EN" "http://www.w3.org/Graphics/SVG/1.1/DTD/svg11.dtd"><svg t="1511855276388" class="icon" style="" viewBox="0 0 1024 1024" version="1.1" xmlns="http://www.w3.org/2000/svg" p-id="2425" xmlns:xlink="http://www.w3.org/1999/xlink" width="200" height="200"><defs><style type="text/css"></style></defs><path d="M511.94368 62.59712c-247.0656 0-448.05632 200.99072-448.05632 448.05632 0 247.07072 200.99072 448.05632 448.05632 448.05632 247.07584 0 448.06144-200.9856 448.06144-448.05632 0-247.07072-200.9856-448.05632-448.06144-448.05632z m215.22944 374.51264l-256.256 259.04128c-0.09728 0.06144-0.19456 0.1024-0.256 0.18944-0.09216 0.06144-0.128 0.19456-0.18944 0.26112-2.048 2.01728-4.54656 3.2-6.94272 4.54144-1.18784 0.64-2.14528 1.664-3.39456 2.18112a32.1536 32.1536 0 0 1-11.97056 2.3296c-4.096 0-8.22272-0.7936-12.09344-2.39616-1.28-0.51712-2.26816-1.62816-3.52256-2.304-2.37056-1.34144-4.864-2.56-6.88128-4.55168-0.06144-0.06144-0.09728-0.18944-0.15872-0.25088-0.06656-0.1024-0.18944-0.1024-0.256-0.18944l-126.0288-129.52064a31.99488 31.99488 0 0 1 0.64-45.25568 31.98464 31.98464 0 0 1 45.24544 0.64l103.28064 106.12736 233.31328-235.86816a31.96416 31.96416 0 0 1 45.25056-0.256 32.03072 32.03072 0 0 1 0.22016 45.28128z" p-id="2426"></path></svg>