<?xml version="1.0" standalone="no"?><!DOCTYPE svg PUBLIC "-//W3C//DTD SVG 1.1//EN" "http://www.w3.org/Graphics/SVG/1.1/DTD/svg11.dtd"><svg t="1512045188863" class="icon" style="" viewBox="0 0 1025 1024" version="1.1" xmlns="http://www.w3.org/2000/svg" p-id="3498" xmlns:xlink="http://www.w3.org/1999/xlink" width="200.1953125" height="200"><defs><style type="text/css"></style></defs><path d="M869.324105 16.584965 147.669451 16.584965c-77.06886 0-139.546037 62.477177-139.546037 139.546037l0 721.654654c0 77.06886 62.477177 139.546037 139.546037 139.546037l721.654654 0c77.06886 0 139.546037-62.476162 139.546037-139.546037L1008.870141 156.131002C1008.869126 79.062142 946.392964 16.584965 869.324105 16.584965zM508.49627 219.379903c136.583022 0 136.809462 104.493505 136.809462 163.26539 0 58.771885-54.724394 167.962754-136.809462 168.098822-82.084052 0.11982-136.809462-109.31069-136.809462-168.080544C371.686808 323.887625 371.92848 219.379903 508.49627 219.379903zM504.67725 814.536754c-104.530061 0-198.021417-47.048783-260.633646-121.051054 8.21988-22.727282 20.245579-47.350365 36.496468-59.995474 34.947943-27.190082 135.667107-72.390789 135.667107-72.390789l63.590085 120.93428 11.555556-29.320447-17.926344-36.152239 35.836441-36.16747 35.82121 36.16747-17.894866 36.152239 9.689202 28.641127 65.410745-120.254959c0 0 100.734395 45.200706 135.683353 72.390789 15.921891 12.406484 27.10174 31.654914 34.973328 50.601761C710.461605 763.471958 613.54826 814.536754 504.67725 814.536754z" p-id="3499" fill="#cdcdcd"></path></svg>