<?xml version="1.0" standalone="no"?><!DOCTYPE svg PUBLIC "-//W3C//DTD SVG 1.1//EN" "http://www.w3.org/Graphics/SVG/1.1/DTD/svg11.dtd"><svg class="icon" width="200px" height="200.00px" viewBox="0 0 1024 1024" version="1.1" xmlns="http://www.w3.org/2000/svg"><path fill="#999999" d="M160.127977 401.106354c-26.63359 0-49.264007 9.315156-67.906599 27.956725-18.634406 18.634406-27.955702 41.264822-27.955702 67.898413 0 26.621311 9.320273 49.26503 27.961842 67.90353 18.641569 18.634406 41.277102 27.951609 67.906599 27.951608 26.624381 0 49.256844-9.317203 67.899436-27.951608 18.636452-18.636452 27.956725-41.280172 27.956726-67.90353 0-26.63359-9.320273-49.264007-27.961842-67.899436-18.636452-18.635429-41.269939-27.955702-67.90046-27.955702zM160.133094 145.472186c-26.63359 0-49.264007 9.320273-67.9066 27.956725-18.634406 18.641569-27.955702 41.271986-27.955702 67.899436 0 26.631544 9.315156 49.264007 27.955702 67.905576 18.641569 18.636452 41.277102 27.953655 67.9066 27.953656 26.624381 0 49.256844-9.31925 67.899436-27.953656 18.636452-18.641569 27.956725-41.275056 27.956725-67.905576 0-26.628474-9.320273-49.25889-27.956725-67.899436-18.633383-18.635429-41.265846-27.956725-67.899436-27.956725zM160.133094 656.738475c-26.63359 0-49.270147 9.312086-67.9066 27.946493-18.634406 18.646686-27.955702 41.281195-27.955702 67.900459 0 26.641777 9.315156 49.264007 27.955702 67.910693 18.641569 18.636452 41.277102 27.953655 67.9066 27.953655 26.624381 0 49.256844-9.317203 67.899436-27.953655 18.636452-18.646686 27.956725-41.267892 27.956725-67.910693 0-26.621311-9.320273-49.26503-27.956725-67.899436-18.633383-18.635429-41.265846-27.947516-67.899436-27.947516zM954.227913 182.1659c-3.170203-3.152806-6.90527-4.735861-11.238972-4.735862H335.867514c-4.324492 0-8.070816 1.576915-11.231809 4.735862-3.15997 3.169179-4.743024 6.90527-4.743024 11.231808v95.867418c0 4.328585 1.583055 8.063653 4.743024 11.233856 3.163039 3.1569 6.909363 4.735861 11.231809 4.735861h607.121427c4.333702 0 8.071839-1.573845 11.238972-4.735861 3.165086-3.169179 4.738931-6.906294 4.738931-11.233856v-95.865371c-0.002047-4.325515-1.581008-8.069793-4.738931-11.233855zM942.988941 433.05909H335.867514c-4.324492 0-8.070816 1.573845-11.231809 4.743024-3.15997 3.15997-4.743024 6.906294-4.743024 11.231809v95.864348c0 4.322445 1.583055 8.066723 4.743024 11.228739 3.163039 3.170203 6.909363 4.746094 11.231809 4.746094h607.121427c4.333702 0 8.071839-1.573845 11.238972-4.746094 3.165086-3.162016 4.738931-6.90527 4.738931-11.228739v-95.864348c0-4.326539-1.578961-8.079002-4.738931-11.231809-3.172249-3.162016-6.907317-4.743024-11.238972-4.743024zM942.988941 688.682002H335.867514c-4.324492 0-8.070816 1.578961-11.231809 4.746094-3.15997 3.165086-4.743024 6.906294-4.743024 11.226692v95.864348c0 4.333702 1.583055 8.071839 4.743024 11.238972 3.163039 3.15997 6.909363 4.733814 11.231809 4.733814h607.121427c4.333702 0 8.071839-1.573845 11.238972-4.733814 3.165086-3.167133 4.738931-6.90527 4.738931-11.238972v-95.864348c0-4.321422-1.578961-8.073886-4.738931-11.226692-3.172249-3.15383-6.907317-4.746094-11.238972-4.746094z" /></svg>