<?xml version="1.0" standalone="no"?><!DOCTYPE svg PUBLIC "-//W3C//DTD SVG 1.1//EN" "http://www.w3.org/Graphics/SVG/1.1/DTD/svg11.dtd"><svg t="1511863856430" class="icon" style="" viewBox="0 0 1024 1024" version="1.1" xmlns="http://www.w3.org/2000/svg" p-id="1790" xmlns:xlink="http://www.w3.org/1999/xlink" width="200" height="200"><defs><style type="text/css"></style></defs><path d="M341.020444 126.236444C325.603556 102.883556 302.051556 69.432889 277.589333 42.524444 250.794667 13.112889 230.798222 0 212.736 0 176.611556 0 128.938667 49.123556 96.369778 95.118222 75.946667 123.960889 28.444444 198.570667 28.444444 268.259556 28.444444 333.653333 70.030222 418.872889 104.931556 478.833778 152.007111 559.701333 217.116444 646.798222 288.256 724.081778L311.466667 748.714667C384.711111 824.263111 466.972444 893.184 543.317333 942.990222 599.950222 979.939556 680.391111 1024 742.200889 1024 808.049778 1024 878.478222 973.710222 905.728 952.064 949.162667 917.589333 995.555556 867.128889 995.555556 828.871111 995.555556 809.756444 983.153778 788.593778 955.392 760.206222 930.019556 734.321778 898.389333 709.376 876.316444 693.020444 846.734222 671.089778 815.729778 650.780444 788.992 635.818667 746.552889 612.124444 728.832 609.393778 719.189333 609.393778 700.501333 609.393778 684.145778 619.946667 670.549333 640.768 661.191111 655.160889 654.023111 672.711111 647.082667 689.692444 640.682667 705.365333 633.998222 721.237333 628.622222 728.376889L626.346667 731.420444 622.791111 730.510222C617.045333 729.088 594.517333 721.692444 546.588444 687.132444 508.672 659.768889 467.427556 624.298667 436.337778 592.241778 405.987556 559.246222 372.48 515.612444 346.595556 475.392 313.969778 424.618667 306.972444 400.782222 305.607111 394.695111L304.782222 390.940444 307.626667 388.522667C314.851556 382.407111 332.288 374.414222 343.836444 369.123556 360.334222 361.557333 376.860444 353.991111 390.371556 344.120889 410.055111 329.756444 420.010667 312.433778 420.010667 292.636444 420.010667 282.396444 417.422222 263.623111 395.036444 218.737778 380.956444 190.464 361.784889 157.610667 341.020444 126.236444L341.020444 126.236444ZM372.679111 295.566222C371.171556 297.898667 367.616 301.795556 359.310222 307.029333 349.724444 313.059556 337.009778 318.890667 325.774222 324.010667 311.296 330.666667 296.675556 337.351111 285.184 345.429333 267.235556 358.030222 258.304 373.219556 258.673778 390.656 258.816 399.587556 259.356444 426.780444 308.366222 502.954667 335.758222 545.536 371.285333 591.758222 403.370667 626.602667 436.679111 661.020444 480.312889 698.624 520.533333 727.608889 592.440889 779.463111 618.154667 780.032 626.602667 780.231111L626.602667 780.231111C643.697778 780.231111 657.806222 770.673778 669.496889 751.872 677.034667 739.726222 683.320889 724.366222 689.379556 709.518222 694.641778 696.632889 699.932444 683.662222 705.592889 673.649778 710.513778 664.945778 714.183111 661.191111 716.373333 659.541333L718.279111 658.147556 720.554667 658.517333C724.707556 659.228444 737.564444 662.556444 766.663111 678.741333 790.158222 691.825778 817.863111 709.831111 844.714667 729.429333 915.427556 781.084444 943.502222 816.071111 948.451556 827.335111L949.390222 829.468444 948.736 831.715556C947.882667 834.588444 944.014222 845.340444 929.109333 863.544889 915.342222 880.384 896.199111 898.673778 875.207111 915.057778 827.079111 952.604444 777.358222 975.018667 742.200889 975.018667 703.032889 975.018667 639.402667 948.167111 567.608889 901.319111 494.108444 853.361778 414.72 786.830222 344.092444 713.984L344.064 713.927111 321.308444 689.834667C252.416 614.968889 189.582222 530.915556 144.327111 453.148444 100.096 377.116444 74.695111 309.731556 74.695111 268.259556 74.695111 231.025778 95.857778 178.375111 131.328 127.431111 146.830222 105.187556 164.096 84.906667 179.968 70.343111 197.205333 54.528 207.36 50.432 210.062222 49.578667L212.195556 48.896 214.186667 49.891556C224.824889 55.125333 257.877333 84.849778 306.659556 159.715556 325.148444 188.131556 342.158222 217.457778 354.503111 242.346667 369.777778 273.123556 372.963556 286.748444 373.589333 291.185778L373.959111 293.575111 372.679111 295.566222 372.679111 295.566222Z" p-id="1791"></path></svg>