<?xml version="1.0" standalone="no"?><!DOCTYPE svg PUBLIC "-//W3C//DTD SVG 1.1//EN" "http://www.w3.org/Graphics/SVG/1.1/DTD/svg11.dtd"><svg class="icon" width="200px" height="200.00px" viewBox="0 0 1024 1024" version="1.1" xmlns="http://www.w3.org/2000/svg"><path fill="#999999" d="M508.53 205.586c-101.754 0-184.23 82.476-184.23 184.236s82.476 184.23 184.23 184.23c101.758 0 184.238-82.47 184.238-184.23S610.29 205.586 508.53 205.586L508.53 205.586zM508.53 527.996c-76.316 0-138.174-61.856-138.174-138.174 0-76.324 61.858-138.174 138.174-138.174 76.324 0 138.174 61.852 138.174 138.174C646.706 466.14 584.854 527.996 508.53 527.996L508.53 527.996zM508.53 527.996M512.364 6C299.048 6 125.486 179.562 125.486 392.888c0 206.186 350.88 585.208 365.814 602.824l21.064 24.828 21.068-24.828c14.934-17.616 365.824-396.636 365.824-602.824C899.256 179.562 725.694 6 512.364 6L512.364 6zM512.274 934.542C403.086 801.38 180.754 537.216 180.754 392.888c0-182.844 148.774-331.618 331.608-331.618 182.85 0 331.624 148.774 331.624 331.618C843.986 552.094 588.202 841.274 512.274 934.542L512.274 934.542zM512.274 934.542" /></svg>