<?xml version="1.0" standalone="no"?><!DOCTYPE svg PUBLIC "-//W3C//DTD SVG 1.1//EN" "http://www.w3.org/Graphics/SVG/1.1/DTD/svg11.dtd"><svg class="icon" width="200px" height="200.00px" viewBox="0 0 1024 1024" version="1.1" xmlns="http://www.w3.org/2000/svg"><path fill="#ff7900" d="M512 0C229.248 0 0 229.216 0 512c0 282.752 229.216 512 512 512 282.816 0 512-229.248 512-512C1024 229.216 794.816 0 512 0zM512 960C264.608 960 64 759.424 64 512 64 264.576 264.608 64 512 64c247.424 0 448 200.576 448 448C960 759.424 759.424 960 512 960zM476.672 685.088c-0.256-9.76 0-15.552 0-20.448 0-28.672-2.784-64.48 5.344-85.312 5.952-15.68 8.672-21.344 29.632-37.92 11.936-9.408 35.072-21.76 60.352-44.096 25.312-22.304 38.624-41.888 48.672-53.344 14.656-16.672 15.328-38.976 15.328-54.656 0-28.416-11.808-50.496-34.016-72-22.176-21.504-59.776-30.752-92-30.752-31.104 0-69.184 3.936-90.016 23.424-20.832 19.456-37.504 52.512-37.504 97.12l-66.432-0.608c0-53.664 26.848-106.272 60.256-135.744 33.408-29.472 77.568-44.224 132.512-44.224 58.176 0 102.56 19.84 137.184 51.488 34.624 31.648 53.952 65.952 53.952 110.848 0 25.984-6.048 49.92-18.24 71.84-12.192 21.92-36 48.576-71.424 79.968-23.808 21.088-49.6 32.704-56.896 42.72-7.264 10.016-11.904 20.48-13.344 34.144-1.568 14.976-1.44 38.368-2.016 67.584L476.672 685.12zM544.512 781.312c0 23.52-2.112 37.152-32.512 37.152-35.616 0-39.488-10.112-39.488-37.152 0-27.296 5.28-37.088 35.488-37.088C539.104 744.224 544.512 755.232 544.512 781.312z" /></svg>