<?xml version="1.0" standalone="no"?><!DOCTYPE svg PUBLIC "-//W3C//DTD SVG 1.1//EN" "http://www.w3.org/Graphics/SVG/1.1/DTD/svg11.dtd"><svg class="icon" width="200px" height="200.00px" viewBox="0 0 1024 1024" version="1.1" xmlns="http://www.w3.org/2000/svg"><path fill="#6bbb00" d="M512 84.329412C275.802955 84.329412 84.329412 275.821026 84.329412 512s191.473544 427.670588 427.670588 427.670588c236.178974 0 427.670588-191.491614 427.670588-427.670588S748.178974 84.329412 512 84.329412z m0 819.702362C295.48544 904.031774 119.968226 728.51456 119.968226 512 119.968226 295.48544 295.48544 119.968226 512 119.968226c216.51456 0 392.029365 175.516009 392.029365 392.031774 0 216.51456-175.514805 392.031774-392.029365 392.031774z m166.571068-563.127718L423.127642 589.925195l-115.043388-111.440113c-10.633939-10.302645-27.861233-10.302645-38.493967 0-10.615868 10.30144-10.615868 26.97216 0 37.274805l134.689732 130.513017c10.615868 10.266504 27.862438 10.266504 38.493967 0a26.187896 26.187896 0 0 0 3.392452-4.03697l270.896188-264.057073c10.615868-10.302645 10.615868-27.008301 0-37.274805-10.648395-10.302645-27.840753-10.302645-38.491558 0z" /></svg>