<?xml version="1.0" standalone="no"?><!DOCTYPE svg PUBLIC "-//W3C//DTD SVG 1.1//EN" "http://www.w3.org/Graphics/SVG/1.1/DTD/svg11.dtd"><svg t="1512044881086" class="icon" style="" viewBox="0 0 1024 1024" version="1.1" xmlns="http://www.w3.org/2000/svg" p-id="4407" xmlns:xlink="http://www.w3.org/1999/xlink" width="200" height="200"><defs><style type="text/css"></style></defs><path d="M924.463518 179.713035 98.459964 179.713035c-19.292392 0-34.932604 15.640212-34.932604 34.932604l0 593.297584c0 19.291368 15.640212 34.930557 34.932604 34.930557l826.003554 0c19.291368 0 34.93158-15.639189 34.93158-34.930557L959.395098 214.645638C959.395098 195.353246 943.754886 179.713035 924.463518 179.713035zM542.804075 367.552144l331.934948 0 0 64.523549L542.804075 432.075693 542.804075 367.552144zM542.804075 493.02688l331.934948 0 0 64.523549L542.804075 557.550429 542.804075 493.02688zM334.969563 271.723611c91.898013 0 92.042299 70.304206 92.042299 109.872387 0 39.534412-36.799114 112.987331-92.042299 113.075335-55.184857 0.088004-92.042299-73.540923-92.042299-113.075335C242.928287 342.05647 243.101225 271.723611 334.969563 271.723611zM179.4393 552.448224c23.686469-18.326391 91.808986-48.943712 91.808986-48.943712l43.00649 81.811284 7.866155-19.846-12.150738-24.443715 24.242124-24.474414 24.240077 24.474414-12.119015 24.443715 6.556323 19.378349 44.257993-81.343633c0 0 21.702278 9.784854 44.809555 21.559015l0.030699 0 0 101.68389L145.378553 626.747417C145.378553 626.748441 155.81423 570.899458 179.4393 552.448224zM877.543905 760.120031l-732.165352 0L145.378553 695.595458l732.165352 0L877.543905 760.120031z" p-id="4408" fill="#dbdbdb"></path></svg>