<?xml version="1.0" standalone="no"?><!DOCTYPE svg PUBLIC "-//W3C//DTD SVG 1.1//EN" "http://www.w3.org/Graphics/SVG/1.1/DTD/svg11.dtd"><svg t="1511969226250" class="icon" style="" viewBox="0 0 1024 1024" version="1.1" xmlns="http://www.w3.org/2000/svg" p-id="1854" xmlns:xlink="http://www.w3.org/1999/xlink" width="200" height="200"><defs><style type="text/css"></style></defs><path d="M696 184h-368c-27.2 0-48 20.8-48 48v560c0 27.2 20.8 48 48 48h368c27.2 0 48-20.8 48-48v-560c0-27.2-20.8-48-48-48z m-368 32h368c9.6 0 16 6.4 16 16v416h-400v-416c0-9.6 6.4-16 16-16z m368 592h-368c-9.6 0-16-6.4-16-16v-112h400v112c0 9.6-6.4 16-16 16z" fill="#bfbfbf" p-id="1855"></path><path d="M512 744m-32 0a32 32 0 1 0 64 0 32 32 0 1 0-64 0Z" fill="#bfbfbf" p-id="1856"></path></svg>