<?xml version="1.0" standalone="no"?><!DOCTYPE svg PUBLIC "-//W3C//DTD SVG 1.1//EN" "http://www.w3.org/Graphics/SVG/1.1/DTD/svg11.dtd"><svg class="icon" width="200px" height="200.00px" viewBox="0 0 1024 1024" version="1.1" xmlns="http://www.w3.org/2000/svg"><path fill="#ffffff" d="M793.784 981.583c-8.325 0-16.673-2.32-23.985-6.983L511.999 810.211 254.2 974.6c-15.378 9.809-35.336 9.243-50.114-1.484-14.766-10.68-21.242-29.237-16.273-46.605l80.752-281.632L27.604 444.436c-13.671-11.375-18.981-29.755-13.435-46.499 5.558-16.732 20.865-28.495 38.728-29.755l289.003-20.465 130.03-279.972c7.171-15.437 22.82-25.328 40.07-25.328 17.238 0 32.911 9.891 40.082 25.328l130.042 279.972 288.991 20.465c17.863 1.26 33.17 13.023 38.716 29.755 5.546 16.744 0.247 35.125-13.423 46.499L755.433 644.88l80.74 281.644c4.993 17.368-1.484 35.913-16.261 46.605C812.153 978.745 802.968 981.583 793.784 981.583zM511.999 715.294c8.348 0 16.685 2.331 23.974 6.994l183.688 117.113-56.708-197.83c-4.686-16.32 0.754-33.829 13.953-44.803l180.121-149.824L649.765 432.26c-16.073-1.119-30.226-10.786-36.926-25.198l-100.84-217.07L411.182 407.05c-6.676 14.412-20.842 24.08-36.914 25.198l-207.262 14.683 180.109 149.824c13.164 10.974 18.628 28.483 13.941 44.803l-56.708 197.83 183.688-117.113C495.326 717.625 503.662 715.294 511.999 715.294z" /></svg>