<?xml version="1.0" standalone="no"?><!DOCTYPE svg PUBLIC "-//W3C//DTD SVG 1.1//EN" "http://www.w3.org/Graphics/SVG/1.1/DTD/svg11.dtd"><svg t="1517463118163" class="icon" style="" viewBox="0 0 1365 1024" version="1.1" xmlns="http://www.w3.org/2000/svg" p-id="3022" xmlns:xlink="http://www.w3.org/1999/xlink" width="266.6015625" height="200"><defs><style type="text/css"></style></defs><path d="M167.584334 171.166165c0-19.527836 0-37.280413 0-55.743094 40.475877 0 79.8866 0 120.362477 0 0 18.107629 0 35.860207 0 54.322888 25.563712 2.485361 47.221857 4.970722 66.749692-19.172784 33.374846-40.475877 70.655259-77.756291 107.22557-115.391755C485.710527 10.682862 513.7596-0.678788 549.264755 0.031316c92.668456 2.130309 185.691963 1.775258 278.715471 0 30.889485-0.355052 56.098146 8.521237 76.691136 29.469279 41.18598 42.251135 81.306806 85.567425 121.427632 129.238766 8.521237 9.23134 16.687423 12.426804 29.114228 12.426804 66.749692-0.710103 133.854436-0.355052 200.604129-0.355052 63.199177 0 108.290724 45.091547 108.645776 108.290724 0 208.770314-0.355052 417.540629 0.355052 626.310943 0 56.098146-43.671341 118.232168-117.167013 117.877116-373.159184-1.420206-746.67342-1.420206-1119.832604 0-66.394641 0.355052-128.528663-59.29361-127.463508-127.81856 2.485361-202.734438 2.130309-405.823927 0.355052-608.558365-0.710103-67.814847 56.808249-115.746807 115.391755-116.101858C132.079178 171.166165 148.766602 171.166165 167.584334 171.166165zM379.905164 579.120402c0 167.229282 134.209488 302.503925 301.083719 302.858976 168.294437 0.355052 303.924131-133.854436 304.279183-301.43877 0.355052-168.294437-134.209488-303.569079-302.148873-303.924131C515.179806 276.616477 379.905164 411.181016 379.905164 579.120402zM1023.968684 344.076272c20.59299 0 39.765774 0 58.228455 0 0-20.237939 0-39.410723 0-58.228455-20.237939 0-38.700619 0-58.228455 0C1023.968684 305.375653 1023.968684 323.838334 1023.968684 344.076272z" p-id="3023" fill="#666666"></path><path d="M682.054037 332.004519c135.984746 2.485361 246.760831 104.740209 247.470934 246.405779 1.065155 138.115055-106.515466 246.760831-247.115882 248.181037-135.274642 1.420206-246.760831-111.486188-247.470934-247.115882C434.583103 444.910914 545.71424 333.424726 682.054037 332.004519zM682.409089 693.091951c61.068867 0 113.261446-51.482475 113.971549-112.551343 0.710103-61.778971-51.482475-114.681652-113.616498-114.681652-61.068867 0-112.906394 51.127424-113.971549 112.551343C568.082488 639.834218 620.275066 693.091951 682.409089 693.091951z" p-id="3024" fill="#666666"></path></svg>